# xmcd CD database file
#
# Track frame offsets:
#	150
#	26383
#	55893
#	81447
#	111058
#	134255
#	153325
#	195838
#	219136
#	255566
#
# Disc length: 3711 seconds
#
# Revision: 0
# Processed by: cddbd v1.5.2PL0 Copyright (c) Steve Scherf et al.
# Submitted via: CDex 1.83
#
DISCID=770e7d0a
DTITLE=The Fonda_Stevens Group - Memphis
DYEAR=2009
DGENRE=Jazz
TTITLE0=In The Whitecage
TTITLE1=For My Brother
TTITLE2=Looking For The Lake
TTITLE3=Changing Tides
TTITLE4=The Path
TTITLE5=Yes This Is It
TTITLE6=There Is A Very Fine Line Between Your Life And Mine
TTITLE7=Whale Majesty
TTITLE8=Memphis Ramble
TTITLE9=Break Song
EXTD=YEAR: 2009
EXTT0=
EXTT1=
EXTT2=
EXTT3=
EXTT4=
EXTT5=
EXTT6=
EXTT7=
EXTT8=
EXTT9=
PLAYORDER=
